# xmcd
#
# Track frame offsets:
#  150
#  12878
#  26840
#  38377
#  50747
#  63079
#  76405
#  89314
#  102692
#  115414
#  128349
#  141306
#  154488
#  168279
#  181782
#  194793
#  209650
#  222445
#  235429
#
# Disc length: 3294 seconds
#
# Revision: 1
# Processed by: cddbd v1.5.1PL2 Copyright (c) Steve Scherf et al.
# Submitted via: Collectorz.com_Music_Collector 6.11
#
DISCID=140cdc13
DTITLE=Billy Eckstine - Quadromania: I Ain't Like That [CD2)
DYEAR=2005
DGENRE=Pop Classic Band-Vocal - Pop Classic Vocal
TTITLE0=All I Sing Is Blues
TTITLE1=Long Long Journey
TTITLE2=I Only Have Eyes for You
TTITLE3=You're My Everything
TTITLE4=The Jitney Man
TTITLE5=Blue
TTITLE6=Second Balcony Jump
TTITLE7=Tell Me Pretty Baby
TTITLE8=Love Is the Thing
TTITLE9=Withour a Song
TTITLE10=Cool Breeze
TTITLE11=Don't Take Your Love From Me
TTITLE12=Oo Bop Sh'bam
TTITLE13=Oo Bop Sh'bam
TTITLE14=In the Still of the Night
TTITLE15=Jelly Jelly
TTITLE16=My Silent Love
TTITLE17=Time on My Hands
TTITLE18=All the Things You Are
EXTD=
EXTT0=
EXTT1=
EXTT2=
EXTT3=
EXTT4=
EXTT5=
EXTT6=
EXTT7=
EXTT8=
EXTT9=
EXTT10=
EXTT11=
EXTT12=
EXTT13=
EXTT14=
EXTT15=
EXTT16=
EXTT17=
EXTT18=
PLAYORDER=
